<svg xmlns="http://www.w3.org/2000/svg" width="50" height="50" viewBox="0 0 50 50">
  <g id="Close" transform="translate(-253.382 -159.382)">
    <circle id="Ellipse_29" data-name="Ellipse 29" cx="25" cy="25" r="25" transform="translate(253.382 159.382)" fill="#fff"/>
    <path id="Close-2" data-name="Close" d="M28.375,3.375a25,25,0,1,0,25,25A25,25,0,0,0,28.375,3.375Zm6.334,34.05-6.334-6.334-6.334,6.334a1.921,1.921,0,1,1-2.716-2.716l6.334-6.334-6.334-6.334a1.921,1.921,0,0,1,2.716-2.716l6.334,6.334,6.334-6.334a1.921,1.921,0,0,1,2.716,2.716l-6.334,6.334,6.334,6.334a1.93,1.93,0,0,1,0,2.716A1.908,1.908,0,0,1,34.709,37.425Z" transform="translate(250.007 156.007)" fill="#ff8300"/>
  </g>
</svg>
